<mxfile host="Electron" modified="2024-04-07T18:34:43.076Z" agent="Mozilla/5.0 (X11; Linux x86_64) AppleWebKit/537.36 (KHTML, like Gecko) draw.io/24.1.0 Chrome/120.0.6099.109 Electron/28.1.0 Safari/537.36" etag="7iepv0NN0NtTttbgZsel" version="24.1.0" type="device">
  <diagram name="Page-1" id="9c096ad6-e400-ecc8-3e38-643d2caac077">
    <mxGraphModel dx="3432.5" dy="999" grid="1" gridSize="10" guides="1" tooltips="1" connect="1" arrows="1" fold="1" page="1" pageScale="1.5" pageWidth="1169" pageHeight="826" background="#ffffff" math="0" shadow="0">
      <root>
        <mxCell id="0" style=";html=1;" />
        <mxCell id="1" style=";html=1;" parent="0" />
        <mxCell id="YBhhPaGgn7gxdUzSu2jq-84" value="" style="rounded=0;whiteSpace=wrap;html=1;fillColor=#FFFFFF;" vertex="1" parent="1">
          <mxGeometry x="-1638" y="1000" width="278" height="60" as="geometry" />
        </mxCell>
        <mxCell id="YBhhPaGgn7gxdUzSu2jq-36" style="rounded=0;orthogonalLoop=1;jettySize=auto;html=1;exitX=1;exitY=0.25;exitDx=0;exitDy=0;entryX=0;entryY=0.5;entryDx=0;entryDy=0;strokeColor=#000000;" edge="1" parent="1" source="YBhhPaGgn7gxdUzSu2jq-1" target="YBhhPaGgn7gxdUzSu2jq-2">
          <mxGeometry relative="1" as="geometry" />
        </mxCell>
        <mxCell id="YBhhPaGgn7gxdUzSu2jq-37" style="rounded=0;orthogonalLoop=1;jettySize=auto;html=1;exitX=1;exitY=0.5;exitDx=0;exitDy=0;entryX=0;entryY=0.5;entryDx=0;entryDy=0;strokeColor=#FF0000;" edge="1" parent="1" source="YBhhPaGgn7gxdUzSu2jq-1" target="YBhhPaGgn7gxdUzSu2jq-6">
          <mxGeometry relative="1" as="geometry" />
        </mxCell>
        <mxCell id="YBhhPaGgn7gxdUzSu2jq-38" style="rounded=0;orthogonalLoop=1;jettySize=auto;html=1;exitX=1;exitY=0.75;exitDx=0;exitDy=0;entryX=0;entryY=0.5;entryDx=0;entryDy=0;strokeColor=#000000;" edge="1" parent="1" source="YBhhPaGgn7gxdUzSu2jq-1" target="YBhhPaGgn7gxdUzSu2jq-4">
          <mxGeometry relative="1" as="geometry" />
        </mxCell>
        <mxCell id="YBhhPaGgn7gxdUzSu2jq-1" value="&lt;table style=&quot;width: 100% ; height: 100% ; border-collapse: collapse&quot; width=&quot;100%&quot; border=&quot;1&quot;&gt;&lt;tbody&gt;&lt;tr&gt;&lt;td align=&quot;center&quot; colspan=&quot;2&quot;&gt;Project Description v0.1&lt;br&gt;&lt;/td&gt;&lt;/tr&gt;&lt;tr&gt;&lt;td align=&quot;center&quot;&gt;&lt;font style=&quot;font-size: 12px;&quot;&gt;01&lt;/font&gt;&lt;/td&gt;&lt;td align=&quot;center&quot;&gt;6 days&lt;/td&gt;&lt;/tr&gt;&lt;tr&gt;&lt;td align=&quot;center&quot;&gt;&lt;font style=&quot;font-size: 12px;&quot;&gt;Mar 1&lt;/font&gt;&lt;/td&gt;&lt;td align=&quot;center&quot;&gt;Mar 6&lt;/td&gt;&lt;/tr&gt;&lt;/tbody&gt;&lt;/table&gt;" style="text;html=1;strokeColor=#FF0000;fillColor=#f5f5f5;overflow=fill;rounded=0;shadow=1;fontSize=12;align=center;fontColor=#000000;" vertex="1" parent="1">
          <mxGeometry x="-1180" y="310" width="160" height="80" as="geometry" />
        </mxCell>
        <mxCell id="YBhhPaGgn7gxdUzSu2jq-71" style="rounded=0;orthogonalLoop=1;jettySize=auto;html=1;exitX=1;exitY=0.5;exitDx=0;exitDy=0;entryX=0;entryY=0.5;entryDx=0;entryDy=0;strokeColor=#000000;" edge="1" parent="1" source="YBhhPaGgn7gxdUzSu2jq-2" target="YBhhPaGgn7gxdUzSu2jq-7">
          <mxGeometry relative="1" as="geometry" />
        </mxCell>
        <mxCell id="YBhhPaGgn7gxdUzSu2jq-2" value="&lt;table style=&quot;width: 100% ; height: 100% ; border-collapse: collapse&quot; width=&quot;100%&quot; border=&quot;1&quot;&gt;&lt;tbody&gt;&lt;tr&gt;&lt;td align=&quot;center&quot; colspan=&quot;2&quot;&gt;Project Plan v0.1&lt;/td&gt;&lt;/tr&gt;&lt;tr&gt;&lt;td align=&quot;center&quot;&gt;02&lt;/td&gt;&lt;td align=&quot;center&quot;&gt;&lt;font style=&quot;font-size: 12px;&quot;&gt;12 days&lt;/font&gt;&lt;/td&gt;&lt;/tr&gt;&lt;tr&gt;&lt;td align=&quot;center&quot;&gt;Mar 12&lt;/td&gt;&lt;td align=&quot;center&quot;&gt;Mar 23&lt;/td&gt;&lt;/tr&gt;&lt;/tbody&gt;&lt;/table&gt;" style="text;html=1;strokeColor=#FF0000;fillColor=#f5f5f5;overflow=fill;rounded=0;shadow=1;fontSize=12;align=center;fontColor=#000000;" vertex="1" parent="1">
          <mxGeometry x="-940" y="190" width="160" height="80" as="geometry" />
        </mxCell>
        <mxCell id="YBhhPaGgn7gxdUzSu2jq-65" style="rounded=0;orthogonalLoop=1;jettySize=auto;html=1;exitX=1;exitY=0.5;exitDx=0;exitDy=0;entryX=0;entryY=0.5;entryDx=0;entryDy=0;strokeColor=#FF0000;" edge="1" parent="1" source="YBhhPaGgn7gxdUzSu2jq-3" target="YBhhPaGgn7gxdUzSu2jq-5">
          <mxGeometry relative="1" as="geometry" />
        </mxCell>
        <mxCell id="YBhhPaGgn7gxdUzSu2jq-3" value="&lt;table style=&quot;width: 100% ; height: 100% ; border-collapse: collapse&quot; width=&quot;100%&quot; border=&quot;1&quot;&gt;&lt;tbody&gt;&lt;tr&gt;&lt;td align=&quot;center&quot; colspan=&quot;2&quot;&gt;Team Plan v0.1&lt;/td&gt;&lt;/tr&gt;&lt;tr&gt;&lt;td align=&quot;center&quot;&gt;03&lt;/td&gt;&lt;td align=&quot;center&quot;&gt;&lt;font style=&quot;font-size: 12px;&quot;&gt;10 days&lt;/font&gt;&lt;/td&gt;&lt;/tr&gt;&lt;tr&gt;&lt;td align=&quot;center&quot;&gt;&lt;font style=&quot;font-size: 12px;&quot;&gt;Mar 3&lt;/font&gt;&lt;/td&gt;&lt;td align=&quot;center&quot;&gt;&lt;font style=&quot;font-size: 12px;&quot;&gt;Mar 12&lt;/font&gt;&lt;/td&gt;&lt;/tr&gt;&lt;/tbody&gt;&lt;/table&gt;" style="text;html=1;strokeColor=#FF0000;fillColor=#f5f5f5;overflow=fill;rounded=0;shadow=1;fontSize=12;align=center;fontColor=#000000;" vertex="1" parent="1">
          <mxGeometry x="-1580" y="310" width="160" height="80" as="geometry" />
        </mxCell>
        <mxCell id="YBhhPaGgn7gxdUzSu2jq-70" style="rounded=0;orthogonalLoop=1;jettySize=auto;html=1;exitX=1;exitY=0.5;exitDx=0;exitDy=0;entryX=0;entryY=0.5;entryDx=0;entryDy=0;strokeColor=#000000;" edge="1" parent="1" source="YBhhPaGgn7gxdUzSu2jq-4" target="YBhhPaGgn7gxdUzSu2jq-7">
          <mxGeometry relative="1" as="geometry" />
        </mxCell>
        <mxCell id="YBhhPaGgn7gxdUzSu2jq-4" value="&lt;table style=&quot;width: 100% ; height: 100% ; border-collapse: collapse&quot; width=&quot;100%&quot; border=&quot;1&quot;&gt;&lt;tbody&gt;&lt;tr&gt;&lt;td align=&quot;center&quot; colspan=&quot;2&quot;&gt;Domain Model v0.1&lt;/td&gt;&lt;/tr&gt;&lt;tr&gt;&lt;td align=&quot;center&quot;&gt;04&lt;/td&gt;&lt;td align=&quot;center&quot;&gt;&lt;font style=&quot;font-size: 12px;&quot;&gt;7 days&lt;/font&gt;&lt;/td&gt;&lt;/tr&gt;&lt;tr&gt;&lt;td align=&quot;center&quot;&gt;Mar 24&lt;/td&gt;&lt;td align=&quot;center&quot;&gt;&lt;font style=&quot;font-size: 12px;&quot;&gt;Mar 30&lt;/font&gt;&lt;/td&gt;&lt;/tr&gt;&lt;/tbody&gt;&lt;/table&gt;" style="text;html=1;strokeColor=#FF0000;fillColor=#f5f5f5;overflow=fill;rounded=0;shadow=1;fontSize=12;align=center;fontColor=#000000;" vertex="1" parent="1">
          <mxGeometry x="-940" y="430" width="160" height="80" as="geometry" />
        </mxCell>
        <mxCell id="YBhhPaGgn7gxdUzSu2jq-41" style="rounded=0;orthogonalLoop=1;jettySize=auto;html=1;exitX=1;exitY=0.5;exitDx=0;exitDy=0;entryX=0;entryY=0.5;entryDx=0;entryDy=0;strokeColor=#FF0000;" edge="1" parent="1" source="YBhhPaGgn7gxdUzSu2jq-5" target="YBhhPaGgn7gxdUzSu2jq-1">
          <mxGeometry relative="1" as="geometry" />
        </mxCell>
        <mxCell id="YBhhPaGgn7gxdUzSu2jq-5" value="&lt;table style=&quot;width: 100% ; height: 100% ; border-collapse: collapse&quot; width=&quot;100%&quot; border=&quot;1&quot;&gt;&lt;tbody&gt;&lt;tr&gt;&lt;td align=&quot;center&quot; colspan=&quot;2&quot;&gt;Risk Assessment v0.1&lt;/td&gt;&lt;/tr&gt;&lt;tr&gt;&lt;td align=&quot;center&quot;&gt;05&lt;/td&gt;&lt;td align=&quot;center&quot;&gt;&lt;font style=&quot;font-size: 12px;&quot;&gt;4 days&lt;/font&gt;&lt;/td&gt;&lt;/tr&gt;&lt;tr&gt;&lt;td align=&quot;center&quot;&gt;&lt;font style=&quot;font-size: 12px;&quot;&gt;Mar 6&lt;/font&gt;&lt;/td&gt;&lt;td align=&quot;center&quot;&gt;&lt;font style=&quot;font-size: 12px;&quot;&gt;Mar 9&lt;/font&gt;&lt;/td&gt;&lt;/tr&gt;&lt;/tbody&gt;&lt;/table&gt;" style="text;html=1;strokeColor=#FF0000;fillColor=#f5f5f5;overflow=fill;rounded=0;shadow=1;fontSize=12;align=center;fontColor=#000000;" vertex="1" parent="1">
          <mxGeometry x="-1380" y="310" width="160" height="80" as="geometry" />
        </mxCell>
        <mxCell id="YBhhPaGgn7gxdUzSu2jq-39" style="rounded=0;orthogonalLoop=1;jettySize=auto;html=1;exitX=1;exitY=0.5;exitDx=0;exitDy=0;entryX=0;entryY=0.5;entryDx=0;entryDy=0;strokeColor=#FF0000;" edge="1" parent="1" source="YBhhPaGgn7gxdUzSu2jq-6" target="YBhhPaGgn7gxdUzSu2jq-7">
          <mxGeometry relative="1" as="geometry" />
        </mxCell>
        <mxCell id="YBhhPaGgn7gxdUzSu2jq-80" style="edgeStyle=orthogonalEdgeStyle;rounded=0;orthogonalLoop=1;jettySize=auto;html=1;exitX=1;exitY=0.5;exitDx=0;exitDy=0;entryX=0;entryY=0.5;entryDx=0;entryDy=0;strokeColor=#FF0000;" edge="1" parent="1" source="YBhhPaGgn7gxdUzSu2jq-6" target="YBhhPaGgn7gxdUzSu2jq-9">
          <mxGeometry relative="1" as="geometry">
            <Array as="points">
              <mxPoint x="-740" y="350" />
              <mxPoint x="-740" y="550" />
              <mxPoint x="-1640" y="550" />
              <mxPoint x="-1640" y="750" />
            </Array>
          </mxGeometry>
        </mxCell>
        <mxCell id="YBhhPaGgn7gxdUzSu2jq-6" value="&lt;table style=&quot;width: 100% ; height: 100% ; border-collapse: collapse&quot; width=&quot;100%&quot; border=&quot;1&quot;&gt;&lt;tbody&gt;&lt;tr&gt;&lt;td align=&quot;center&quot; colspan=&quot;2&quot;&gt;Use Cases v0.1&lt;/td&gt;&lt;/tr&gt;&lt;tr&gt;&lt;td align=&quot;center&quot;&gt;06&lt;/td&gt;&lt;td align=&quot;center&quot;&gt;&lt;font style=&quot;font-size: 12px;&quot;&gt;16 days&lt;/font&gt;&lt;/td&gt;&lt;/tr&gt;&lt;tr&gt;&lt;td align=&quot;center&quot;&gt;Mar 14&lt;/td&gt;&lt;td align=&quot;center&quot;&gt;&lt;font style=&quot;font-size: 12px;&quot;&gt;Mar 29&lt;/font&gt;&lt;/td&gt;&lt;/tr&gt;&lt;/tbody&gt;&lt;/table&gt;" style="text;html=1;strokeColor=#FF0000;fillColor=#f5f5f5;overflow=fill;rounded=0;shadow=1;fontSize=12;align=center;fontColor=#000000;" vertex="1" parent="1">
          <mxGeometry x="-940" y="310" width="160" height="80" as="geometry" />
        </mxCell>
        <mxCell id="YBhhPaGgn7gxdUzSu2jq-83" style="rounded=0;orthogonalLoop=1;jettySize=auto;html=1;exitX=1;exitY=0.5;exitDx=0;exitDy=0;entryX=0;entryY=0.5;entryDx=0;entryDy=0;strokeColor=#000000;" edge="1" parent="1" source="YBhhPaGgn7gxdUzSu2jq-7" target="YBhhPaGgn7gxdUzSu2jq-66">
          <mxGeometry relative="1" as="geometry" />
        </mxCell>
        <mxCell id="YBhhPaGgn7gxdUzSu2jq-7" value="&lt;table style=&quot;width: 100% ; height: 100% ; border-collapse: collapse&quot; width=&quot;100%&quot; border=&quot;1&quot;&gt;&lt;tbody&gt;&lt;tr&gt;&lt;td align=&quot;center&quot; colspan=&quot;2&quot;&gt;Project Code v0.1&lt;/td&gt;&lt;/tr&gt;&lt;tr&gt;&lt;td align=&quot;center&quot;&gt;07&lt;/td&gt;&lt;td align=&quot;center&quot;&gt;&lt;font style=&quot;font-size: 12px;&quot;&gt;4 days&lt;/font&gt;&lt;/td&gt;&lt;/tr&gt;&lt;tr&gt;&lt;td align=&quot;center&quot;&gt;&lt;font style=&quot;font-size: 12px;&quot;&gt;Mar 27&lt;/font&gt;&lt;/td&gt;&lt;td align=&quot;center&quot;&gt;Mar 30&lt;/td&gt;&lt;/tr&gt;&lt;/tbody&gt;&lt;/table&gt;" style="text;html=1;strokeColor=#FF0000;fillColor=#f5f5f5;overflow=fill;rounded=0;shadow=1;fontSize=12;align=center;fontColor=#000000;" vertex="1" parent="1">
          <mxGeometry x="-700" y="310" width="160" height="80" as="geometry" />
        </mxCell>
        <mxCell id="YBhhPaGgn7gxdUzSu2jq-44" style="rounded=0;orthogonalLoop=1;jettySize=auto;html=1;exitX=1;exitY=0.5;exitDx=0;exitDy=0;entryX=0;entryY=0.5;entryDx=0;entryDy=0;strokeColor=#000000;" edge="1" parent="1" source="YBhhPaGgn7gxdUzSu2jq-9" target="YBhhPaGgn7gxdUzSu2jq-18">
          <mxGeometry relative="1" as="geometry" />
        </mxCell>
        <mxCell id="YBhhPaGgn7gxdUzSu2jq-46" style="rounded=0;orthogonalLoop=1;jettySize=auto;html=1;exitX=1;exitY=0.5;exitDx=0;exitDy=0;entryX=0;entryY=0.5;entryDx=0;entryDy=0;strokeColor=#FF0000;" edge="1" parent="1" source="YBhhPaGgn7gxdUzSu2jq-9" target="YBhhPaGgn7gxdUzSu2jq-21">
          <mxGeometry relative="1" as="geometry" />
        </mxCell>
        <mxCell id="YBhhPaGgn7gxdUzSu2jq-48" style="rounded=0;orthogonalLoop=1;jettySize=auto;html=1;exitX=1;exitY=0.5;exitDx=0;exitDy=0;entryX=0;entryY=0.5;entryDx=0;entryDy=0;strokeColor=#000000;" edge="1" parent="1" source="YBhhPaGgn7gxdUzSu2jq-9" target="YBhhPaGgn7gxdUzSu2jq-19">
          <mxGeometry relative="1" as="geometry" />
        </mxCell>
        <mxCell id="YBhhPaGgn7gxdUzSu2jq-9" value="&lt;table style=&quot;width: 100% ; height: 100% ; border-collapse: collapse&quot; width=&quot;100%&quot; border=&quot;1&quot;&gt;&lt;tbody&gt;&lt;tr&gt;&lt;td align=&quot;center&quot; colspan=&quot;2&quot;&gt;Robustness Diagrams v0.1&lt;/td&gt;&lt;/tr&gt;&lt;tr&gt;&lt;td align=&quot;center&quot;&gt;&lt;font style=&quot;font-size: 12px;&quot;&gt;08&lt;/font&gt;&lt;/td&gt;&lt;td align=&quot;center&quot;&gt;7 days&lt;/td&gt;&lt;/tr&gt;&lt;tr&gt;&lt;td align=&quot;center&quot;&gt;&lt;font style=&quot;font-size: 12px;&quot;&gt;Apr 5&lt;/font&gt;&lt;/td&gt;&lt;td align=&quot;center&quot;&gt;Apr 11&lt;/td&gt;&lt;/tr&gt;&lt;/tbody&gt;&lt;/table&gt;" style="text;html=1;strokeColor=#FF0000;fillColor=#f5f5f5;overflow=fill;rounded=0;shadow=1;fontSize=12;align=center;fontColor=#000000;" vertex="1" parent="1">
          <mxGeometry x="-1620" y="710" width="160" height="80" as="geometry" />
        </mxCell>
        <mxCell id="YBhhPaGgn7gxdUzSu2jq-82" style="rounded=0;orthogonalLoop=1;jettySize=auto;html=1;exitX=1;exitY=0.5;exitDx=0;exitDy=0;entryX=0;entryY=0.5;entryDx=0;entryDy=0;strokeColor=#000000;" edge="1" parent="1" source="YBhhPaGgn7gxdUzSu2jq-15" target="YBhhPaGgn7gxdUzSu2jq-66">
          <mxGeometry relative="1" as="geometry" />
        </mxCell>
        <mxCell id="YBhhPaGgn7gxdUzSu2jq-15" value="&lt;table style=&quot;width: 100% ; height: 100% ; border-collapse: collapse&quot; width=&quot;100%&quot; border=&quot;1&quot;&gt;&lt;tbody&gt;&lt;tr&gt;&lt;td align=&quot;center&quot; colspan=&quot;2&quot;&gt;Project Code v0.2&lt;/td&gt;&lt;/tr&gt;&lt;tr&gt;&lt;td align=&quot;center&quot;&gt;12&lt;/td&gt;&lt;td align=&quot;center&quot;&gt;&lt;font style=&quot;font-size: 12px;&quot;&gt;10 days&lt;/font&gt;&lt;/td&gt;&lt;/tr&gt;&lt;tr&gt;&lt;td align=&quot;center&quot;&gt;Apr 30&lt;/td&gt;&lt;td align=&quot;center&quot;&gt;May 9&lt;/td&gt;&lt;/tr&gt;&lt;/tbody&gt;&lt;/table&gt;" style="text;html=1;strokeColor=#FF0000;fillColor=#f5f5f5;overflow=fill;rounded=0;shadow=1;fontSize=12;align=center;fontColor=#000000;" vertex="1" parent="1">
          <mxGeometry x="-1140" y="670" width="160" height="80" as="geometry" />
        </mxCell>
        <mxCell id="YBhhPaGgn7gxdUzSu2jq-81" style="rounded=0;orthogonalLoop=1;jettySize=auto;html=1;exitX=1;exitY=0.5;exitDx=0;exitDy=0;entryX=0;entryY=0.5;entryDx=0;entryDy=0;strokeColor=#FF0000;" edge="1" parent="1" source="YBhhPaGgn7gxdUzSu2jq-17" target="YBhhPaGgn7gxdUzSu2jq-66">
          <mxGeometry relative="1" as="geometry" />
        </mxCell>
        <mxCell id="YBhhPaGgn7gxdUzSu2jq-17" value="&lt;table style=&quot;width: 100% ; height: 100% ; border-collapse: collapse&quot; width=&quot;100%&quot; border=&quot;1&quot;&gt;&lt;tbody&gt;&lt;tr&gt;&lt;td align=&quot;center&quot; colspan=&quot;2&quot;&gt;Project Code v0.3&lt;/td&gt;&lt;/tr&gt;&lt;tr&gt;&lt;td align=&quot;center&quot;&gt;14&lt;/td&gt;&lt;td align=&quot;center&quot;&gt;&lt;font style=&quot;font-size: 12px;&quot;&gt;14 days&lt;/font&gt;&lt;/td&gt;&lt;/tr&gt;&lt;tr&gt;&lt;td align=&quot;center&quot;&gt;May 12&lt;/td&gt;&lt;td align=&quot;center&quot;&gt;May 25&lt;/td&gt;&lt;/tr&gt;&lt;/tbody&gt;&lt;/table&gt;" style="text;html=1;strokeColor=#FF0000;fillColor=#f5f5f5;overflow=fill;rounded=0;shadow=1;fontSize=12;align=center;fontColor=#000000;" vertex="1" parent="1">
          <mxGeometry x="-700" y="750" width="160" height="80" as="geometry" />
        </mxCell>
        <mxCell id="YBhhPaGgn7gxdUzSu2jq-49" style="rounded=0;orthogonalLoop=1;jettySize=auto;html=1;exitX=1;exitY=0.5;exitDx=0;exitDy=0;entryX=0;entryY=0.5;entryDx=0;entryDy=0;strokeColor=#FF0000;" edge="1" parent="1" source="YBhhPaGgn7gxdUzSu2jq-18" target="YBhhPaGgn7gxdUzSu2jq-20">
          <mxGeometry relative="1" as="geometry" />
        </mxCell>
        <mxCell id="YBhhPaGgn7gxdUzSu2jq-50" style="rounded=0;orthogonalLoop=1;jettySize=auto;html=1;exitX=1;exitY=0.5;exitDx=0;exitDy=0;entryX=0;entryY=0.5;entryDx=0;entryDy=0;strokeColor=#000000;" edge="1" parent="1" source="YBhhPaGgn7gxdUzSu2jq-18" target="YBhhPaGgn7gxdUzSu2jq-15">
          <mxGeometry relative="1" as="geometry" />
        </mxCell>
        <mxCell id="YBhhPaGgn7gxdUzSu2jq-18" value="&lt;table style=&quot;width: 100% ; height: 100% ; border-collapse: collapse&quot; width=&quot;100%&quot; border=&quot;1&quot;&gt;&lt;tbody&gt;&lt;tr&gt;&lt;td align=&quot;center&quot; colspan=&quot;2&quot;&gt;Sequence Diagrams v0.1&lt;/td&gt;&lt;/tr&gt;&lt;tr&gt;&lt;td align=&quot;center&quot;&gt;09&lt;/td&gt;&lt;td align=&quot;center&quot;&gt;&lt;font style=&quot;font-size: 12px;&quot;&gt;7 days&lt;/font&gt;&lt;/td&gt;&lt;/tr&gt;&lt;tr&gt;&lt;td align=&quot;center&quot;&gt;&lt;font style=&quot;font-size: 12px;&quot;&gt;Apr 11&lt;/font&gt;&lt;/td&gt;&lt;td align=&quot;center&quot;&gt;Apr 17&lt;/td&gt;&lt;/tr&gt;&lt;/tbody&gt;&lt;/table&gt;" style="text;html=1;strokeColor=#FF0000;fillColor=#f5f5f5;overflow=fill;rounded=0;shadow=1;fontSize=12;align=center;fontColor=#000000;" vertex="1" parent="1">
          <mxGeometry x="-1380" y="830" width="160" height="80" as="geometry" />
        </mxCell>
        <mxCell id="YBhhPaGgn7gxdUzSu2jq-75" style="rounded=0;orthogonalLoop=1;jettySize=auto;html=1;exitX=1;exitY=0.5;exitDx=0;exitDy=0;entryX=0;entryY=0.5;entryDx=0;entryDy=0;strokeColor=#000000;" edge="1" parent="1" source="YBhhPaGgn7gxdUzSu2jq-19" target="YBhhPaGgn7gxdUzSu2jq-15">
          <mxGeometry relative="1" as="geometry" />
        </mxCell>
        <mxCell id="YBhhPaGgn7gxdUzSu2jq-19" value="&lt;table style=&quot;width: 100% ; height: 100% ; border-collapse: collapse&quot; width=&quot;100%&quot; border=&quot;1&quot;&gt;&lt;tbody&gt;&lt;tr&gt;&lt;td align=&quot;center&quot; colspan=&quot;2&quot;&gt;Use Cases v0.2&lt;/td&gt;&lt;/tr&gt;&lt;tr&gt;&lt;td align=&quot;center&quot;&gt;09&lt;/td&gt;&lt;td align=&quot;center&quot;&gt;&lt;font style=&quot;font-size: 12px;&quot;&gt;12 days&lt;/font&gt;&lt;/td&gt;&lt;/tr&gt;&lt;tr&gt;&lt;td align=&quot;center&quot;&gt;&lt;font style=&quot;font-size: 12px;&quot;&gt;Apr 16&lt;/font&gt;&lt;/td&gt;&lt;td align=&quot;center&quot;&gt;Apr 27&lt;/td&gt;&lt;/tr&gt;&lt;/tbody&gt;&lt;/table&gt;" style="text;html=1;strokeColor=#FF0000;fillColor=#f5f5f5;overflow=fill;rounded=0;shadow=1;fontSize=12;align=center;fontColor=#000000;" vertex="1" parent="1">
          <mxGeometry x="-1380" y="590" width="160" height="80" as="geometry" />
        </mxCell>
        <mxCell id="YBhhPaGgn7gxdUzSu2jq-51" style="rounded=0;orthogonalLoop=1;jettySize=auto;html=1;exitX=1;exitY=0.5;exitDx=0;exitDy=0;entryX=0;entryY=0.5;entryDx=0;entryDy=0;strokeColor=#FF0000;" edge="1" parent="1" source="YBhhPaGgn7gxdUzSu2jq-20" target="YBhhPaGgn7gxdUzSu2jq-22">
          <mxGeometry relative="1" as="geometry" />
        </mxCell>
        <mxCell id="YBhhPaGgn7gxdUzSu2jq-20" value="&lt;table style=&quot;width: 100% ; height: 100% ; border-collapse: collapse&quot; width=&quot;100%&quot; border=&quot;1&quot;&gt;&lt;tbody&gt;&lt;tr&gt;&lt;td align=&quot;center&quot; colspan=&quot;2&quot;&gt;Domain Model v0.2&lt;/td&gt;&lt;/tr&gt;&lt;tr&gt;&lt;td align=&quot;center&quot;&gt;10&lt;/td&gt;&lt;td align=&quot;center&quot;&gt;&lt;font style=&quot;font-size: 12px;&quot;&gt;7 days&lt;/font&gt;&lt;/td&gt;&lt;/tr&gt;&lt;tr&gt;&lt;td align=&quot;center&quot;&gt;Apr 23&lt;/td&gt;&lt;td align=&quot;center&quot;&gt;Apr 29&lt;/td&gt;&lt;/tr&gt;&lt;/tbody&gt;&lt;/table&gt;" style="text;html=1;strokeColor=#FF0000;fillColor=#f5f5f5;overflow=fill;rounded=0;shadow=1;fontSize=12;align=center;fontColor=#000000;" vertex="1" parent="1">
          <mxGeometry x="-1140" y="830" width="160" height="80" as="geometry" />
        </mxCell>
        <mxCell id="YBhhPaGgn7gxdUzSu2jq-77" style="rounded=0;orthogonalLoop=1;jettySize=auto;html=1;exitX=1;exitY=0.5;exitDx=0;exitDy=0;entryX=0;entryY=0.5;entryDx=0;entryDy=0;strokeColor=#000000;" edge="1" parent="1" source="YBhhPaGgn7gxdUzSu2jq-21" target="YBhhPaGgn7gxdUzSu2jq-15">
          <mxGeometry relative="1" as="geometry" />
        </mxCell>
        <mxCell id="YBhhPaGgn7gxdUzSu2jq-21" value="&lt;table style=&quot;width: 100% ; height: 100% ; border-collapse: collapse&quot; width=&quot;100%&quot; border=&quot;1&quot;&gt;&lt;tbody&gt;&lt;tr&gt;&lt;td align=&quot;center&quot; colspan=&quot;2&quot;&gt;Project Description v0.2&lt;/td&gt;&lt;/tr&gt;&lt;tr&gt;&lt;td align=&quot;center&quot;&gt;11&lt;/td&gt;&lt;td align=&quot;center&quot;&gt;&lt;font style=&quot;font-size: 12px;&quot;&gt;14 days&lt;/font&gt;&lt;/td&gt;&lt;/tr&gt;&lt;tr&gt;&lt;td align=&quot;center&quot;&gt;Apr 15&lt;/td&gt;&lt;td align=&quot;center&quot;&gt;Apr 28&lt;/td&gt;&lt;/tr&gt;&lt;/tbody&gt;&lt;/table&gt;" style="text;html=1;strokeColor=#FF0000;fillColor=#f5f5f5;overflow=fill;rounded=0;shadow=1;fontSize=12;align=center;fontColor=#000000;" vertex="1" parent="1">
          <mxGeometry x="-1380" y="710" width="160" height="80" as="geometry" />
        </mxCell>
        <mxCell id="YBhhPaGgn7gxdUzSu2jq-52" style="rounded=0;orthogonalLoop=1;jettySize=auto;html=1;exitX=1;exitY=0.5;exitDx=0;exitDy=0;entryX=0;entryY=0.5;entryDx=0;entryDy=0;strokeColor=#FF0000;" edge="1" parent="1" source="YBhhPaGgn7gxdUzSu2jq-22" target="YBhhPaGgn7gxdUzSu2jq-17">
          <mxGeometry relative="1" as="geometry" />
        </mxCell>
        <mxCell id="YBhhPaGgn7gxdUzSu2jq-22" value="&lt;table style=&quot;width: 100% ; height: 100% ; border-collapse: collapse&quot; width=&quot;100%&quot; border=&quot;1&quot;&gt;&lt;tbody&gt;&lt;tr&gt;&lt;td align=&quot;center&quot; colspan=&quot;2&quot;&gt;Class Diagram v0.1&lt;/td&gt;&lt;/tr&gt;&lt;tr&gt;&lt;td align=&quot;center&quot;&gt;13&lt;/td&gt;&lt;td align=&quot;center&quot;&gt;&lt;font style=&quot;font-size: 12px;&quot;&gt;7 days&lt;/font&gt;&lt;/td&gt;&lt;/tr&gt;&lt;tr&gt;&lt;td align=&quot;center&quot;&gt;&lt;font style=&quot;font-size: 12px;&quot;&gt;May 15&lt;/font&gt;&lt;/td&gt;&lt;td align=&quot;center&quot;&gt;May 21&lt;/td&gt;&lt;/tr&gt;&lt;/tbody&gt;&lt;/table&gt;" style="text;html=1;strokeColor=#FF0000;fillColor=#f5f5f5;overflow=fill;rounded=0;shadow=1;fontSize=12;align=center;fontColor=#000000;" vertex="1" parent="1">
          <mxGeometry x="-900" y="750" width="160" height="80" as="geometry" />
        </mxCell>
        <mxCell id="YBhhPaGgn7gxdUzSu2jq-33" value="" style="line;strokeWidth=1;html=1;rounded=1;fontSize=17;align=center;verticalAlign=middle;strokeColor=#FF0000;endFill=1;endArrow=classic;endSize=10;startSize=10;" vertex="1" parent="1">
          <mxGeometry x="-1612" y="1025" width="68" height="10" as="geometry" />
        </mxCell>
        <mxCell id="YBhhPaGgn7gxdUzSu2jq-34" value="Κρίσιμο Μονοπάτι" style="text;html=1;strokeColor=none;fillColor=none;align=left;verticalAlign=middle;whiteSpace=wrap;rounded=0;shadow=1;fontSize=17;fontColor=#000000;" vertex="1" parent="1">
          <mxGeometry x="-1527" y="1020" width="143" height="20" as="geometry" />
        </mxCell>
        <mxCell id="YBhhPaGgn7gxdUzSu2jq-66" value="&lt;table style=&quot;width: 100% ; height: 100% ; border-collapse: collapse&quot; width=&quot;100%&quot; border=&quot;1&quot;&gt;&lt;tbody&gt;&lt;tr&gt;&lt;td align=&quot;center&quot; colspan=&quot;2&quot;&gt;Τελική Παράδοση&lt;/td&gt;&lt;/tr&gt;&lt;tr&gt;&lt;td align=&quot;center&quot;&gt;25&lt;/td&gt;&lt;td align=&quot;center&quot;&gt;&lt;font style=&quot;font-size: 12px;&quot;&gt;1 day&lt;/font&gt;&lt;/td&gt;&lt;/tr&gt;&lt;tr&gt;&lt;td align=&quot;center&quot;&gt;Jun 10&lt;/td&gt;&lt;td align=&quot;center&quot;&gt;Jun&amp;nbsp; 10&lt;/td&gt;&lt;/tr&gt;&lt;/tbody&gt;&lt;/table&gt;" style="text;html=1;strokeColor=#FF0000;fillColor=#f5f5f5;overflow=fill;rounded=0;shadow=1;fontSize=12;align=center;fontColor=#000000;" vertex="1" parent="1">
          <mxGeometry x="-460" y="510" width="160" height="80" as="geometry" />
        </mxCell>
      </root>
    </mxGraphModel>
  </diagram>
</mxfile>
